# xmcd CD database file
#
# Track frame offsets:
#	150
#	17275
#	36580
#	55584
#	78918
#	97206
#	118574
#	133793
#	160084
#	179906
#	194977
#	215583
#	234263
#	260296
#	276046
#
# Disc length: 3999 seconds
#
# Revision: 3
# Processed by: cddbd v1.5.2PL0 Copyright (c) Steve Scherf et al.
# Submitted via: CDex 1.94
#
DISCID=d70f9d0f
DTITLE=Various Artist - City Lounge 3 - London
DYEAR=2007
DGENRE=Lounge
TTITLE0=Bonobo - Days To Come
TTITLE1=DJ Vadim ft. Katherin DeBoer - Black Is The Night
TTITLE2=Swayzak - Speak Easy
TTITLE3=Alice Russell - Mirror Mirror On The Wolf (Bonobo Remix)
TTITLE4=Qunatic ft. Ohmega Watts - Ticket To Know Where
TTITLE5=Oneself - Be Your Own
TTITLE6=Harvey Lindo ft. Phillipa Alexander - Gameshow (Low Risk Factor)
TTITLE7=A Guy Called Gerald ft. Finlay Quaye - Strangest Changes
TTITLE8=Red Snapper - Odd Man Out
TTITLE9=Broadcast - Before We Begin
TTITLE10=Fink - Pretty Little Thing
TTITLE11=Cirkus - Laylow
TTITLE12=Diplo ft. Martina Topley Bird - Into The Sun
TTITLE13=Nightmares On Wax - You Whish
TTITLE14=Board Of Canada - Left Side Drive
EXTD=YEAR: 2007
EXTT0=
EXTT1=
EXTT2=
EXTT3=
EXTT4=
EXTT5=
EXTT6=
EXTT7=
EXTT8=
EXTT9=
EXTT10=
EXTT11=
EXTT12=
EXTT13=
EXTT14=
PLAYORDER=
